<svg width="51" height="43" viewBox="0 0 51 43" fill="none" xmlns="http://www.w3.org/2000/svg">
<g clip-path="url(#clip0_100_57)">
<path d="M2 1.73193H5.35713H8.71426" stroke="black" stroke-width="3" stroke-linecap="round"/>
<path d="M8.71436 2.08545L11.5414 16.9275L14.3685 31.7695" stroke="black" stroke-width="3" stroke-linecap="round"/>
<path d="M9.4209 4.20581H29.2103H48.9997" stroke="black" stroke-width="3" stroke-linecap="round"/>
<path d="M43.3457 23.2882L46.1728 13.7469L48.9998 4.20557" stroke="black" stroke-width="3" stroke-linecap="round"/>
<path d="M12.9551 23.2881H28.1505H43.3459" stroke="black" stroke-width="3" stroke-linecap="round"/>
<path d="M14.3684 31.7695H28.1503H41.9322" stroke="black" stroke-width="3" stroke-linecap="round"/>
<path d="M18.0486 43.0001C19.9479 43.0001 21.4876 41.4604 21.4876 39.5611C21.4876 37.6618 19.9479 36.1221 18.0486 36.1221C16.1493 36.1221 14.6096 37.6618 14.6096 39.5611C14.6096 41.4604 16.1493 43.0001 18.0486 43.0001Z" fill="black"/>
<path d="M37.5367 43.0001C39.436 43.0001 40.9757 41.4604 40.9757 39.5611C40.9757 37.6618 39.436 36.1221 37.5367 36.1221C35.6374 36.1221 34.0977 37.6618 34.0977 39.5611C34.0977 41.4604 35.6374 43.0001 37.5367 43.0001Z" fill="black"/>
</g>
<defs>
<clipPath id="clip0_100_57">
<rect width="51" height="43" fill="white"/>
</clipPath>
</defs>
</svg>
