<svg width="48" height="42" viewBox="0 0 48 42" fill="none" xmlns="http://www.w3.org/2000/svg">
<path d="M15.0005 36H9.00029C7.34367 36 6.00019 34.6566 6.00019 33V9C6.00019 7.34344 7.34367 6 9.00029 6H15.0005C16.6571 6 18.0006 4.65656 18.0006 3C18.0006 1.34344 16.6599 0 15.0005 0H9.00029C4.0295 0 0 4.02938 0 9V33C0 37.9706 4.0295 42 9.00029 42H15.0005C16.6571 42 18.0006 40.6566 18.0006 39C18.0006 37.3434 16.6599 36 15.0005 36ZM47.1202 18.8812L35.1199 6.88125C33.947 5.70844 32.0485 5.71031 30.8775 6.88125C29.7056 8.05313 29.7056 9.95156 30.8775 11.1234L37.7637 18H18.0006C16.3411 18 15.0005 19.3406 15.0005 21C15.0005 22.6594 16.3421 24 18.0006 24H37.7637L30.8841 30.8794C29.7122 32.0513 29.7122 33.9497 30.8841 35.1216C32.056 36.2934 33.9545 36.2934 35.1264 35.1216L47.1268 23.1216C48.2922 21.9469 48.2922 20.0531 47.1202 18.8812Z" fill="#FFE81F"/>
</svg>
