<svg width="95" height="94" viewBox="0 0 95 94" fill="none" xmlns="http://www.w3.org/2000/svg">
<path d="M32.2199 44.838L14.8069 27.426" stroke="#FFE81F" stroke-width="2" stroke-miterlimit="10" stroke-linecap="round" stroke-linejoin="round"/>
<path d="M39.9339 38.41L22.0439 20.52" stroke="#FFE81F" stroke-width="2" stroke-miterlimit="10" stroke-linecap="round" stroke-linejoin="round"/>
<path d="M22.3222 73.1246C22.7127 72.7341 22.7127 72.1009 22.3222 71.7104C21.9317 71.3199 21.2985 71.3199 20.908 71.7104C20.5175 72.1009 20.5175 72.7341 20.908 73.1246C21.2985 73.5151 21.9317 73.5151 22.3222 73.1246Z" stroke="#FFE81F" stroke-width="2" stroke-miterlimit="10" stroke-linecap="round" stroke-linejoin="round"/>
<path d="M29.3933 66.0539C29.7838 65.6634 29.7838 65.0302 29.3933 64.6397C29.0028 64.2492 28.3696 64.2492 27.9791 64.6397C27.5886 65.0302 27.5886 65.6634 27.9791 66.0539C28.3696 66.4444 29.0028 66.4444 29.3933 66.0539Z" stroke="#FFE81F" stroke-width="2" stroke-miterlimit="10" stroke-linecap="round" stroke-linejoin="round"/>
<path d="M14.6411 61.751C15.1934 61.751 15.6411 61.3033 15.6411 60.751C15.6411 60.1987 15.1934 59.751 14.6411 59.751C14.0888 59.751 13.6411 60.1987 13.6411 60.751C13.6411 61.3033 14.0888 61.751 14.6411 61.751Z" stroke="#FFE81F" stroke-width="2" stroke-miterlimit="10" stroke-linecap="round" stroke-linejoin="round"/>
<path d="M23.6411 57.5081C24.1934 57.5081 24.6411 57.0603 24.6411 56.5081C24.6411 55.9558 24.1934 55.5081 23.6411 55.5081C23.0888 55.5081 22.6411 55.9558 22.6411 56.5081C22.6411 57.0603 23.0888 57.5081 23.6411 57.5081Z" stroke="#FFE81F" stroke-width="2" stroke-miterlimit="10" stroke-linecap="round" stroke-linejoin="round"/>
<path d="M33.283 80.3929C33.8352 80.3929 34.283 79.9452 34.283 79.3929C34.283 78.8407 33.8352 78.3929 33.283 78.3929C32.7307 78.3929 32.283 78.8407 32.283 79.3929C32.283 79.9452 32.7307 80.3929 33.283 80.3929Z" stroke="#FFE81F" stroke-width="2" stroke-miterlimit="10" stroke-linecap="round" stroke-linejoin="round"/>
<path d="M37.5259 71.3929C38.0782 71.3929 38.5259 70.9452 38.5259 70.3929C38.5259 69.8407 38.0782 69.3929 37.5259 69.3929C36.9736 69.3929 36.5259 69.8407 36.5259 70.3929C36.5259 70.9452 36.9736 71.3929 37.5259 71.3929Z" stroke="#FFE81F" stroke-width="2" stroke-miterlimit="10" stroke-linecap="round" stroke-linejoin="round"/>
<path d="M48.8759 39.501L83.1339 5.243L78.8909 1L31.7429 15.494" stroke="#FFE81F" stroke-width="2" stroke-miterlimit="10" stroke-linecap="round" stroke-linejoin="round"/>
<path d="M73.2351 15.142L78.8911 20.799" stroke="#FFE81F" stroke-width="2" stroke-miterlimit="10" stroke-linecap="round" stroke-linejoin="round"/>
<path d="M72.376 27.314C78.045 34.348 80.664 43.168 80.426 51.727" stroke="#FFE81F" stroke-width="2" stroke-miterlimit="10" stroke-linecap="round" stroke-linejoin="round"/>
<path d="M54.1731 45.471L88.7911 10.9L93.0341 15.142L81.9731 50.246" stroke="#FFE81F" stroke-width="2" stroke-miterlimit="10" stroke-linecap="round" stroke-linejoin="round"/>
<path d="M58.0511 56.5269L83.8411 62.5179L91.6191 54.7399C93.5641 52.7949 93.5641 49.6129 91.6191 47.6689C89.6751 45.7249 86.4931 45.7249 84.5481 47.6689L80.3961 51.7569L54.1741 45.4709" stroke="#FFE81F" stroke-width="2" stroke-miterlimit="10" stroke-linecap="round" stroke-linejoin="round"/>
<path d="M73.599 72.075L54.623 53.204" stroke="#FFE81F" stroke-width="2" stroke-miterlimit="10" stroke-linecap="round" stroke-linejoin="round"/>
<path d="M66.7191 79.338L48.3411 60.776" stroke="#FFE81F" stroke-width="2" stroke-miterlimit="10" stroke-linecap="round" stroke-linejoin="round"/>
<path d="M51.5415 58.4839C56.2278 53.7976 56.2278 46.1997 51.5415 41.5135C46.8553 36.8272 39.2574 36.8272 34.5711 41.5135C29.8849 46.1997 29.8849 53.7976 34.5711 58.4839C39.2574 63.1701 46.8553 63.1701 51.5415 58.4839Z" stroke="#FFE81F" stroke-width="2" stroke-miterlimit="10" stroke-linecap="round"/>
<path d="M7.01099 44.999L32.22 44.838" stroke="#FFE81F" stroke-width="2" stroke-miterlimit="10" stroke-linecap="round" stroke-linejoin="round"/>
<path d="M49.0179 87.092L48.3069 60.776" stroke="#FFE81F" stroke-width="2" stroke-miterlimit="10" stroke-linecap="round" stroke-linejoin="round"/>
<path d="M79.1 61.417C77.383 66.995 74.317 72.247 69.903 76.661C64.077 82.487 56.79 85.964 49.222 87.092L43.261 92.998C33.261 92.998 21.747 88.849 13.448 80.55C5.168 72.27 1.018 61.422 1 50.57L7.011 44.999C8.166 37.492 11.795 30.117 17.577 24.335C31.036 10.876 52.285 9.95296 66.812 21.568" stroke="#FFE81F" stroke-width="2" stroke-miterlimit="10" stroke-linecap="round" stroke-linejoin="round"/>
</svg>
