<svg width="47" height="38" viewBox="0 0 47 38" fill="none" xmlns="http://www.w3.org/2000/svg">
<path d="M18.2223 25.8496C18.2223 27.8906 17.155 31.2305 14.6287 31.2305C12.1025 31.2305 11.0352 27.8906 11.0352 25.8496C11.0352 23.8086 12.1025 20.4688 14.6287 20.4688C17.155 20.4688 18.2223 23.8086 18.2223 25.8496ZM47 20.918C47 24.0332 46.6867 27.334 45.2865 30.1953C41.5754 37.6758 31.3725 37.5 24.0679 37.5C16.6458 37.5 5.83583 37.7637 1.97792 30.1953C0.548333 27.3633 0 24.0332 0 20.918C0 16.8262 1.36104 12.959 4.06354 9.82422C3.55438 8.28125 3.30958 6.66016 3.30958 5.05859C3.30958 2.95898 3.78938 1.9043 4.73917 0C9.17479 0 12.0144 0.878906 15.3925 3.51562C18.2321 2.8418 21.15 2.53906 24.0777 2.53906C26.7215 2.53906 29.3848 2.82227 31.9502 3.4375C35.2794 0.830078 38.119 0 42.5056 0C43.4652 1.9043 43.9352 2.95898 43.9352 5.05859C43.9352 6.66016 43.6806 8.25195 43.1813 9.76562C45.874 12.9297 47 16.8262 47 20.918ZM40.704 25.8496C40.704 21.5625 38.0896 17.7832 33.5071 17.7832C31.6565 17.7832 29.8842 18.1152 28.0238 18.3691C26.5648 18.5938 25.1058 18.6816 23.6077 18.6816C22.1194 18.6816 20.6604 18.5938 19.1917 18.3691C17.3606 18.1152 15.5688 17.7832 13.7083 17.7832C9.12583 17.7832 6.51146 21.5625 6.51146 25.8496C6.51146 34.4238 14.384 35.7422 21.2381 35.7422H25.9577C32.8413 35.7422 40.704 34.4336 40.704 25.8496ZM32.616 20.4688C30.0898 20.4688 29.0225 23.8086 29.0225 25.8496C29.0225 27.8906 30.0898 31.2305 32.616 31.2305C35.1423 31.2305 36.2096 27.8906 36.2096 25.8496C36.2096 23.8086 35.1423 20.4688 32.616 20.4688Z" fill="black"/>
</svg>
