<svg width="36" height="36" viewBox="0 0 36 36" fill="none" xmlns="http://www.w3.org/2000/svg">
<path d="M33.4286 0H2.56339C1.14911 0 0 1.16113 0 2.58652V33.2885C0 34.7139 1.14911 35.875 2.56339 35.875H33.4286C34.8429 35.875 36 34.7139 36 33.2885V2.58652C36 1.16113 34.8429 0 33.4286 0ZM10.8804 30.75H5.54464V13.6293H10.8884V30.75H10.8804ZM8.2125 11.291C6.50089 11.291 5.11875 9.90566 5.11875 8.20801C5.11875 6.51035 6.50089 5.125 8.2125 5.125C9.91607 5.125 11.3062 6.51035 11.3062 8.20801C11.3062 9.91367 9.92411 11.291 8.2125 11.291ZM30.8812 30.75H25.5455V22.4219C25.5455 20.4359 25.5054 17.8814 22.7732 17.8814C19.9929 17.8814 19.567 20.0436 19.567 22.2777V30.75H14.2313V13.6293H19.35V15.9676H19.4223C20.1375 14.6223 21.8813 13.2049 24.4768 13.2049C29.8768 13.2049 30.8812 16.7523 30.8812 21.3648V30.75Z" fill="black"/>
</svg>
