<svg width="751" height="322" viewBox="0 0 751 322" fill="none" xmlns="http://www.w3.org/2000/svg">
<path d="M140.712 174.773L150.98 204.985C156.536 221.323 161.496 234.386 162.143 234.386C162.154 234.386 162.164 234.382 162.171 234.374C162.882 233.745 182.98 175.268 182.98 175.268H221.934L174.939 312.46H147.864C147.864 312.46 118.966 228.839 119.085 228.522L88.9195 311.407H62.1178L15.7151 174.773L54.4788 174.798C54.4788 174.798 75.7129 235.1 75.996 235.1L75.9983 235.098L97.1863 174.771L140.712 174.773V174.773ZM2.48121 165.271L6.74604 177.83L53.1487 314.464L55.3339 320.9H95.5507L97.8223 314.659L118.767 257.109C120.572 262.371 122.523 268.041 124.474 273.706C129.279 287.661 134.092 301.614 138.912 315.564L141.12 321.953H181.705L183.901 315.543L230.895 178.352L235.203 165.775H176.222L174.022 172.178C169.984 183.925 165.919 195.663 161.828 207.391C161.195 205.57 160.569 203.747 159.948 201.921L149.681 171.711L147.495 165.278H90.477L88.2492 171.622L75.8692 206.87C71.7036 195.132 67.5521 183.388 63.4146 171.64L61.1857 165.31L54.4859 165.306L15.7222 165.281L2.48121 165.271V165.271ZM740.63 174.242L740.542 210.201C740.542 210.201 701.882 210.073 682.227 210.073C675.689 210.073 671.251 210.09 671.041 210.126C667.658 210.745 665.499 217.961 666.459 221.127C666.93 222.73 670.477 227.962 674.312 232.769C678.137 237.577 684.428 245.444 688.263 250.246C698.114 262.564 699.466 264.995 700.379 272.069C701.859 283.558 696.437 295.99 686.37 304.189C676.278 312.412 676.723 312.471 601.828 312.471H598.539C552.988 312.457 528.898 312.08 525.391 311.298C519.162 309.886 509.233 301.77 483.003 276.555C473.567 267.494 464.869 259.561 464.423 259.558C464.411 259.558 464.406 259.567 464.406 259.58L464.096 312.475L421.58 312.288L421.317 175.854H516.138C544.715 176.888 564.056 205.412 560.207 223.602C559.335 227.731 557.107 233.713 555.256 236.892C551.453 243.418 541.777 251.796 533.923 255.392C531.023 256.706 528.654 258.236 528.654 258.782C528.654 260.811 538.201 270.23 541.777 271.727C544.833 273.007 553.727 273.292 592.954 273.292L605.516 273.294C644.947 273.294 642.962 273.009 646.008 266.482C648.141 261.939 646.519 259.221 631.514 242.288C612.504 223.337 614.493 214.259 614.364 207.555C614.093 199.521 620.407 174.25 653.225 174.25L740.63 174.242V174.242ZM485.914 237.272C504.117 237.272 507.813 236.989 511.686 235.303C524.763 229.607 525.461 212.783 512.919 205.317C510.171 203.678 506.641 203.409 486.91 203.301L464.077 203.18C464.266 203.357 464.004 235.894 464.004 235.894C464.004 235.894 469.724 237.272 485.914 237.272V237.272ZM750.128 164.749H653.225C634.236 164.749 623.005 172.257 616.931 178.557C607.041 188.801 604.718 201.7 604.895 207.782C604.905 208.288 604.9 208.808 604.893 209.35C604.808 219.233 606.257 230.422 624.624 248.8C628.251 252.894 634.323 259.761 636.623 263.174C631.604 263.792 618.881 263.792 605.515 263.792H599.841L592.955 263.79C569.382 263.79 549.502 263.721 545.431 262.916C544.86 262.546 544.062 261.903 543.183 261.139C551.327 256.116 559.562 248.325 563.44 241.666C565.792 237.616 568.388 230.698 569.478 225.567C571.895 214.147 567.91 200.369 558.818 188.703C548.21 175.091 532.779 166.948 516.483 166.359L516.311 166.352H411.824L411.845 175.866L412.108 312.298L412.127 321.731L421.541 321.772L464.057 321.96L473.515 322L473.573 312.523L473.755 280.835C474.622 281.66 475.52 282.519 476.444 283.403C505.139 310.979 514.766 318.621 523.299 320.554C525.644 321.076 529.521 321.944 598.532 321.963H601.821C639.186 321.963 657.939 321.963 669.093 320.885C681.871 319.647 685.982 316.743 692.142 311.716L692.348 311.549C705.001 301.239 711.679 285.645 709.775 270.849C708.533 261.225 705.991 257.228 695.655 244.307L692.583 240.463C688.957 235.926 685.334 231.387 681.713 226.847C679.364 223.899 677.513 221.283 676.403 219.568C677.864 219.565 679.766 219.562 682.227 219.562C701.645 219.562 740.127 219.689 740.513 219.691L749.997 219.721L750.021 210.219L750.111 174.257L750.128 164.749V164.749ZM473.54 227.433L473.583 219.651C473.595 217.278 473.607 214.9 473.608 212.721L486.859 212.791C494.474 212.832 505.931 212.896 508.165 213.531C511.015 215.264 512.606 217.946 512.434 220.723C512.339 222.222 511.626 224.98 507.907 226.596C505.834 227.499 502.531 227.779 485.916 227.779C480.643 227.779 476.577 227.626 473.54 227.433ZM335.17 173.682L382.889 311.231L344.005 311.407L337.551 290.749L268.029 290.19L261.895 310.873L223.403 310.469L270.517 173.74L335.17 173.682ZM303.902 193.848C303.804 194.243 297.81 210.721 291.796 227.195C285.732 243.808 279.648 260.42 279.564 260.548C279.725 260.5 301.256 260.453 315.056 260.453C321.515 260.453 326.278 260.465 326.367 260.486L326.368 260.492V260.489L326.367 260.486C326.125 259.862 303.972 194.651 303.902 193.848L303.903 193.841L303.902 193.848ZM341.905 164.182L335.163 164.189L270.509 164.249L263.763 164.257L261.562 170.648L214.448 307.377L210.158 319.827L223.306 319.964L261.797 320.368L268.943 320.443L270.978 313.582L275.083 299.744L330.575 300.189L334.966 314.249L337.057 320.94L344.053 320.91L382.935 320.733L396.192 320.67L391.837 308.124L344.119 170.575L341.905 164.182V164.182ZM293.202 250.973C294.996 246.073 297.413 239.452 300.695 230.459L303.529 222.692L306.098 230.282C306.863 232.543 310.225 242.469 313.109 250.963C304.535 250.963 298.08 250.964 293.202 250.973V250.973ZM351.253 9.50692V43.4432H283.414V147.235H242.969V43.3614L163.783 43.5856C154.237 43.5856 152.958 51.2035 152.958 54.1225C152.958 57.7072 155.292 61.2895 168.106 77.5457C176.42 88.1051 184.059 98.6432 185.066 100.945C190.561 113.619 183.455 133.363 170.51 141.384C161.284 147.095 162.861 147.236 94.3474 147.236H9.47477V109.11H125.422L128.845 106.725C131.155 105.112 132.493 102.894 133.002 99.8547C133.713 95.4881 133.346 94.9185 119.027 78.7584C102.103 59.6532 100.314 56.1658 101.191 43.9689C102.185 30.0503 114.574 9.82967 136.224 9.82967L351.253 9.50692V9.50692ZM360.728 0L351.238 0.0154256L136.208 0.335804C123.822 0.335804 112.319 5.69917 103.826 15.4327C96.9399 23.3247 92.4205 33.7417 91.7383 43.2914C90.5859 59.3233 94.2692 65.1174 111.939 85.0615C117.067 90.8485 121.943 96.3531 123.57 98.6895C123.553 98.7537 123.531 98.8167 123.506 98.8781C123.488 98.8936 123.461 98.9125 123.423 98.9398L122.45 99.6174H0V156.729H94.3474C128.127 156.729 144.801 156.698 154.624 155.974C165.863 155.151 169.449 153.219 174.821 149.875L175.492 149.457C192.383 138.992 201.088 114.065 193.757 97.1611C191.495 91.99 177.172 73.7308 175.546 71.6662C171.05 65.9611 163.629 56.5491 162.454 53.8247C162.483 53.5969 162.539 53.3584 162.598 53.1946C162.793 53.1448 163.167 53.0771 163.783 53.0771L233.494 52.879V156.727H292.889V52.9347H360.728V0V0ZM461.469 10.6093L509.056 148.514L470.245 148.301L463.944 127.642L394.732 127.334L388.549 147.234H349.028L396.093 10.6093H461.469ZM406.028 97.9668L453.168 97.9075V97.9087C453.33 97.9087 430.26 30.0348 430.106 29.9874C429.938 29.9814 405.498 97.9668 406.028 97.9668V97.9668ZM468.22 1.11658H389.343L387.142 7.51346L340.074 144.139L335.737 156.728H395.529L397.602 150.056L401.701 136.86L456.93 137.105L461.193 151.075L463.232 157.754L470.204 157.793L509.017 158.008L522.396 158.082L518.025 145.414L470.438 7.50634L468.22 1.11658ZM419.191 88.4587C422.717 78.4354 426.275 68.4238 429.867 58.4239C433.271 68.4222 436.661 78.4251 440.038 88.4326L419.191 88.4587V88.4587ZM595.12 10.6093C625.821 10.6093 647.125 11.0483 651.224 11.7602C660.698 13.412 669.26 18.4763 675.678 26.2627C682.393 34.4003 683.934 38.2947 684.81 49.4474C686.067 65.1945 678.593 78.7809 663.846 87.5949C659.548 90.1698 655.133 92.6735 654.029 93.1718C652.336 93.9419 652.563 94.68 655.593 98.2397C657.544 100.531 660.934 103.794 663.113 105.489L667.091 108.586L740.616 109.642L741.337 147.234H696.258C661.393 147.234 650.238 146.912 646.965 145.811C642.074 144.15 630.306 134.159 606.377 111.353L589.299 95.0716L589.479 147.234H545.605V10.6093H595.12ZM588.657 72.0388H611.953C634.623 72.0388 635.332 71.9664 638.566 69.5363C644.347 65.1934 646.394 60.7187 645.779 53.8484C645.155 46.7633 642.427 43.0754 635.594 40.1089C631.745 38.4228 628.036 38.1511 609.869 38.1511H588.657V72.0388V72.0388ZM595.12 1.11658H536.141V156.727H598.994L598.962 147.202L598.855 117.28L599.853 118.229C629.442 146.435 638.172 152.845 643.93 154.799C648.35 156.295 655.752 156.727 696.264 156.727H751L750.815 147.052L750.094 109.46L749.921 100.284L740.761 100.153L670.409 99.1427L668.935 97.9941C668.466 97.6263 667.897 97.1421 667.29 96.5939L668.72 95.7432C686.487 85.1197 695.8 67.9688 694.264 48.6915C693.242 35.6877 690.924 29.8296 682.988 20.2135C675.19 10.7576 664.487 4.43427 652.85 2.40877C646.38 1.28507 613.905 1.11658 595.12 1.11658V1.11658ZM598.132 47.6426H609.869C626.479 47.6426 629.771 47.919 631.8 48.8066C635.649 50.4761 636.04 51.2878 636.341 54.6873C636.644 58.0679 636.227 59.4265 632.88 61.9385L632.616 62.1355C630.407 62.5461 622.212 62.5461 611.953 62.5461H598.132V47.6426V47.6426Z" fill="#FFE81F"/>
</svg>
