<svg width="549" height="597" viewBox="0 0 549 597" fill="none" xmlns="http://www.w3.org/2000/svg">
<path d="M209.942 0C120.85 0 48.4481 72.338 48.4481 161.351V185.554V189.588V193.622V203.17C39.0714 206.512 32.2988 215.391 32.2988 225.892V298.5C32.2988 306.003 35.7369 312.727 41.1147 317.172C25.8051 331.516 0 361.33 0 399.345C0 436.948 22.2087 465.257 34.8536 478.319C33.1499 485.587 32.2988 492.928 32.2988 500.189C32.2988 553.572 84.8246 597 149.382 597C189.246 597 210.45 584.117 229.151 572.766C232.302 570.854 235.337 569.145 238.393 567.424C241.355 570.695 245.588 572.797 250.315 572.797C255.413 572.797 259.46 570.078 262.427 566.353C265.394 570.078 269.442 572.797 274.539 572.797C279.375 572.797 283.683 570.59 286.651 567.188C289.62 570.593 293.928 572.797 298.763 572.797C303.467 572.797 307.601 570.678 310.497 567.408C313.592 569.127 316.661 570.831 319.849 572.766C338.55 584.117 359.754 597 399.618 597C464.175 597 516.701 553.572 516.701 500.189C516.701 492.912 515.85 485.579 514.146 478.319C526.791 465.257 549 436.948 549 399.345C549 361.33 523.195 331.516 507.885 317.172C513.263 312.727 516.701 306.003 516.701 298.5V225.892C516.701 215.421 509.966 206.566 500.631 203.202V193.622V185.554V161.351C500.631 72.338 428.229 0 339.137 0H209.942ZM209.942 16.1351H339.137C419.5 16.1351 484.481 81.0588 484.481 161.351V185.554H64.5975V161.351C64.5975 81.0588 129.578 16.1351 209.942 16.1351ZM209.942 40.3378C166.124 40.3378 127.776 63.8049 106.564 98.7489C106.261 99.2013 106.053 99.7103 105.953 100.245C105.852 100.78 105.861 101.329 105.978 101.861C106.095 102.392 106.319 102.894 106.636 103.337C106.953 103.78 107.356 104.154 107.821 104.437C108.287 104.72 108.804 104.906 109.343 104.983C109.882 105.061 110.432 105.029 110.958 104.89C111.484 104.75 111.977 104.505 112.406 104.17C112.836 103.835 113.192 103.417 113.456 102.94C133.263 70.3103 169.008 48.4054 209.942 48.4054H302.801C303.336 48.413 303.867 48.3142 304.363 48.1149C304.86 47.9156 305.312 47.6196 305.693 47.2443C306.074 46.869 306.376 46.4218 306.583 45.9286C306.789 45.4354 306.896 44.9062 306.896 44.3716C306.896 43.837 306.789 43.3078 306.583 42.8146C306.376 42.3215 306.074 41.8743 305.693 41.4989C305.312 41.1236 304.86 40.8277 304.363 40.6284C303.867 40.429 303.336 40.3303 302.801 40.3378H209.942ZM375.552 46.1837C375.415 46.182 375.278 46.1872 375.142 46.1994C374.201 46.2615 373.311 46.6507 372.627 47.2997C371.943 47.9486 371.508 48.8163 371.398 49.7521C371.287 50.688 371.508 51.6329 372.022 52.4231C372.536 53.2132 373.311 53.7987 374.211 54.0779C390.327 59.3592 404.859 68.1231 416.872 79.5569C417.248 79.9544 417.701 80.2713 418.204 80.4882C418.707 80.7051 419.249 80.8175 419.796 80.8187C420.344 80.8198 420.886 80.7097 421.39 80.4949C421.893 80.2801 422.348 79.9652 422.726 79.5693C423.104 79.1734 423.398 78.7048 423.589 78.192C423.78 77.6792 423.865 77.1329 423.838 76.5864C423.811 76.0399 423.673 75.5045 423.432 75.013C423.192 74.5214 422.854 74.0838 422.439 73.7269C409.565 61.4743 394 52.0626 376.735 46.4043C376.354 46.2721 375.955 46.1978 375.552 46.1837ZM433.541 88.696C432.805 88.7259 432.091 88.9565 431.477 89.3629C430.862 89.7693 430.371 90.3359 430.055 91.0014C429.74 91.6669 429.613 92.4059 429.689 93.1383C429.764 93.8707 430.038 94.5686 430.482 95.1563C432.29 97.6401 433.98 100.241 435.623 102.94C435.886 103.417 436.243 103.835 436.673 104.17C437.102 104.505 437.594 104.75 438.121 104.89C438.647 105.029 439.196 105.061 439.735 104.983C440.275 104.906 440.792 104.72 441.258 104.437C441.723 104.154 442.126 103.78 442.443 103.337C442.759 102.894 442.983 102.392 443.101 101.861C443.218 101.329 443.227 100.78 443.126 100.245C443.026 99.7103 442.818 99.2013 442.515 98.7489C440.799 95.9297 438.997 93.1256 437.011 90.3977C436.621 89.8468 436.099 89.4024 435.493 89.1051C434.887 88.8078 434.216 88.6672 433.541 88.696ZM56.5228 193.622H64.5975H484.481H492.556V201.705C492.529 201.705 492.504 201.689 492.477 201.689V209.757H56.5228V193.622ZM56.5228 217.824H64.7552C65.5719 258.367 78.1842 284.753 94.9091 300.737C112.201 317.264 133.38 322.703 149.382 322.703C183.533 322.703 207.978 299.55 237.478 278.268C248.283 270.471 261.22 266.23 274.524 266.23H274.555C287.867 266.23 300.795 270.471 311.601 278.268C341.101 299.55 365.546 322.703 399.697 322.703C415.699 322.703 436.878 317.264 454.17 300.737C470.895 284.753 483.507 258.367 484.324 217.824H492.477C496.926 217.824 500.552 221.447 500.552 225.892V298.5C500.552 302.945 496.926 306.568 492.477 306.568H491.105C487.889 306.568 484.948 308.495 483.677 311.452L438.241 417.371C437.641 416.961 437.056 416.538 436.459 416.126C433.449 414.04 430.416 411.967 427.485 409.839C426.723 409.286 425.987 408.724 425.23 408.169C421.596 405.5 418.022 402.812 414.506 400.101C411.387 397.695 408.482 395.26 405.453 392.837C399.544 388.114 393.636 383.391 388.042 378.687C382.288 373.849 377.142 369.496 371.688 364.821C368.462 362.063 365.067 359.169 361.942 356.501C359.599 354.517 357.361 352.64 355.081 350.719C353.247 349.173 351.098 347.315 349.293 345.818C348.452 345.12 347.668 344.567 346.833 343.88C343.728 341.323 340.641 338.764 337.607 336.396L337.591 336.38C336.319 335.378 335.097 334.537 333.838 333.575C324.865 326.702 316.107 320.665 307.579 316.132C306.736 315.679 305.897 315.249 305.056 314.824C303.526 314.06 301.989 313.285 300.467 312.618C298.198 311.617 295.942 310.735 293.685 309.971C292.538 309.584 291.393 309.302 290.247 308.978C289.365 308.729 288.479 308.415 287.598 308.206C286.956 308.052 286.303 307.978 285.658 307.844C284.544 307.616 283.428 307.391 282.314 307.229C279.742 306.841 277.155 306.568 274.539 306.568C271.924 306.568 269.337 306.841 266.764 307.229C265.651 307.391 264.535 307.616 263.421 307.844C262.776 307.978 262.123 308.052 261.481 308.206C260.6 308.415 259.714 308.729 258.832 308.978C257.686 309.302 256.541 309.584 255.394 309.971C253.193 310.717 250.998 311.583 248.786 312.555C247.054 313.309 245.307 314.18 243.565 315.061C242.977 315.361 242.389 315.66 241.799 315.974C233.144 320.542 224.259 326.669 215.146 333.654C213.913 334.597 212.717 335.414 211.472 336.396C208.438 338.764 205.351 341.323 202.246 343.88C201.411 344.567 200.627 345.12 199.785 345.818C197.981 347.315 195.832 349.173 193.998 350.719C191.718 352.64 189.48 354.517 187.137 356.501C184.012 359.169 180.617 362.063 177.391 364.821C171.279 370.059 165.556 374.924 159.065 380.357C157.825 381.396 156.566 382.435 155.312 383.477C148.417 389.195 141.306 394.945 133.926 400.621C131.798 402.259 129.617 403.883 127.444 405.506C125.102 407.254 122.789 409.012 120.395 410.737C117.249 413.001 114.016 415.212 110.775 417.418L65.323 311.452C64.052 308.495 61.1113 306.568 57.8949 306.568H56.5228C52.0737 306.568 48.4481 302.945 48.4481 298.5V225.892C48.4481 221.447 52.0737 217.824 56.5228 217.824ZM72.9876 217.824H89.1212C89.4254 233.949 91.3607 249.281 98.4734 261.156C106.198 274.052 120.125 282.365 141.307 282.365C158.872 282.365 183.256 273.592 204.911 261.014C225.297 249.174 242.888 234.144 248.786 217.824H300.293C306.191 234.144 323.782 249.174 344.168 261.014C365.822 273.592 390.207 282.365 407.772 282.365C428.954 282.365 442.881 274.052 450.605 261.156C457.718 249.281 459.653 233.949 459.958 217.824H476.091C475.25 256.519 463.569 280.588 448.587 294.907C433.045 309.762 413.855 314.635 399.697 314.635C369.251 314.635 346.311 293.367 316.316 271.729C304.158 262.956 289.585 258.162 274.555 258.162H274.524C259.501 258.162 244.922 262.955 232.762 271.729C202.768 293.367 179.828 314.635 149.382 314.635C135.224 314.635 116.034 309.762 100.492 294.907C85.5097 280.588 73.8284 256.519 72.9876 217.824ZM97.2117 217.824H238.929C233.086 229.895 219.085 243.454 200.842 254.05C180.105 266.094 156.041 274.297 141.307 274.297C122.115 274.297 111.819 267.707 105.413 257.012C99.545 247.216 97.5502 233.173 97.2117 217.824ZM310.15 217.824H451.867C451.529 233.173 449.534 247.216 443.666 257.012C437.26 267.707 426.963 274.297 407.772 274.297C393.038 274.297 368.974 266.094 348.237 254.05C329.994 243.454 315.993 229.895 310.15 217.824ZM274.539 314.635C276.868 314.635 279.24 314.889 281.636 315.281C281.961 315.334 282.288 315.411 282.614 315.47V355.461C279.936 355.254 277.28 354.973 274.539 354.973C271.799 354.973 269.142 355.252 266.465 355.461V315.47C266.791 315.411 267.118 315.334 267.443 315.281C269.839 314.889 272.21 314.635 274.539 314.635ZM258.39 317.566V356.344C252.922 357.131 247.546 358.328 242.241 359.873V324.987C247.803 321.818 253.177 319.33 258.39 317.566ZM290.689 317.566C295.901 319.33 301.276 321.818 306.838 324.987V359.952C301.531 358.383 296.165 357.157 290.689 356.344V317.566ZM60.844 321.505L103.662 421.31C102.16 421.89 100.828 422.381 99.1357 423.075C95.9829 424.365 92.5383 425.859 88.9477 427.628L88.932 427.644C85.347 429.411 81.6087 431.449 77.8766 433.805L77.8608 433.821C75.9977 434.997 74.1395 436.243 72.2937 437.587L72.2779 437.603C70.4321 438.947 68.5979 440.378 66.8054 441.904L66.7897 441.92C64.9973 443.447 63.2388 445.074 61.538 446.805L61.5222 446.82C56.4101 452.022 51.7832 458.18 48.18 465.382C47.8572 466.028 47.6189 466.752 47.3126 467.415C47.2608 467.527 47.222 467.649 47.1707 467.761C36.3442 456.818 16.1494 432.096 16.1494 399.345C16.1494 357.073 54.9371 325.998 60.844 321.505ZM488.156 321.505C494.063 325.998 532.851 357.073 532.851 399.345C532.851 432.096 512.656 456.818 501.829 467.761C496.954 457.059 489.955 448.512 482.195 441.904C471.437 432.745 459.405 426.976 449.959 423.106C448.24 422.397 446.876 421.887 445.354 421.294L488.156 321.505ZM234.166 330.061V362.41C232.787 362.891 231.391 363.432 230.002 363.954C229.914 363.988 229.823 364.016 229.734 364.049C225.887 365.504 221.975 367.113 218.017 368.871V341.753C219.276 340.782 220.608 339.673 221.849 338.743C223.285 337.663 224.726 336.548 226.139 335.529C227.855 334.293 229.549 333.112 231.233 331.968C232.224 331.294 233.187 330.701 234.166 330.061ZM314.913 330.061C315.892 330.701 316.855 331.294 317.846 331.968C319.529 333.112 321.223 334.293 322.94 335.529C324.353 336.548 325.794 337.663 327.23 338.743C328.471 339.673 329.803 340.782 331.062 341.753V368.902C329.935 368.407 328.804 367.894 327.687 367.421C327.639 367.4 327.594 367.378 327.545 367.358C325.222 366.375 322.887 365.467 320.59 364.585C319.486 364.161 318.379 363.754 317.279 363.356C316.492 363.07 315.699 362.761 314.913 362.489V330.061ZM209.942 348.134V372.558C208.918 373.044 207.762 373.648 206.725 374.149C205.675 374.654 204.696 375.048 203.634 375.567C200.688 377.007 196.869 378.911 193.793 380.452V361.496C194.121 361.217 194.49 360.908 194.818 360.63C200.075 356.18 205.022 352.132 209.942 348.134ZM339.137 348.134C344.057 352.132 349.003 356.18 354.261 360.63C354.588 360.908 354.958 361.217 355.286 361.496V380.499C352.183 378.944 348.336 377.019 345.366 375.567C344.72 375.251 344.131 375.011 343.49 374.701C342.083 374.015 340.516 373.222 339.137 372.558V348.134ZM274.508 363.088C275.467 363.089 276.384 363.187 277.331 363.214C279.787 363.283 282.228 363.388 284.617 363.639C285.867 363.764 287.103 363.943 288.339 364.112C290.815 364.451 293.264 364.868 295.688 365.373C296.765 365.597 297.849 365.778 298.921 366.034C302.476 366.888 306.008 367.886 309.567 369.107C309.578 369.111 309.587 369.119 309.598 369.123C309.609 369.128 309.619 369.133 309.63 369.138C312.96 370.225 316.313 371.508 319.707 372.857C320.73 373.268 321.749 373.653 322.783 374.086C323.855 374.531 324.977 375.051 326.063 375.52C330.521 377.464 335.114 379.609 339.878 381.917C344.604 384.215 349.385 386.546 354.514 389.118C368.915 396.358 384.403 404.19 403.861 412.88C405.442 413.587 406.793 414.264 408.418 414.976C411.765 416.44 415.288 417.908 418.827 419.387C420.194 419.959 421.468 420.532 422.865 421.105C424.943 421.957 427.184 422.819 429.331 423.673C432.323 424.867 435.235 426.053 438.367 427.25C438.393 427.261 438.42 427.271 438.446 427.282C438.478 427.294 438.509 427.301 438.541 427.313C438.546 427.313 438.551 427.313 438.557 427.313C438.645 427.348 438.734 427.379 438.825 427.408C438.856 427.419 438.888 427.429 438.919 427.439C440.382 427.996 442.135 428.712 443.824 429.377C444.973 429.833 445.966 430.204 447.199 430.717C447.579 430.874 448.011 431.105 448.398 431.268C457.23 435.005 467.722 440.197 477.006 448.112C481.879 452.267 486.424 457.117 490.175 462.845C490.181 462.855 490.184 462.867 490.19 462.877C491.434 464.781 492.586 466.785 493.644 468.896V468.912L493.66 468.927C494.721 471.046 495.687 473.265 496.53 475.608C497.021 476.972 497.383 478.466 497.792 479.91C498.526 482.709 499.159 485.511 499.59 488.324C499.65 488.724 499.741 489.101 499.795 489.506V489.522C500.285 493.084 500.552 496.649 500.552 500.189C500.552 526.57 484.558 549.954 459.989 564.682C465.142 558.762 468.253 551.979 468.253 544.561C468.253 531.71 460.005 520.378 447.073 512.59C435.346 505.527 419.586 501.115 401.337 500.347C400.776 500.319 400.273 500.189 399.697 500.189C399.376 500.189 399.099 500.275 398.782 500.284C397.738 500.26 396.719 500.189 395.66 500.189C378.968 500.189 367.456 504.634 362.241 506.87C360.741 490.297 354.091 471.933 340.667 456.779C325.829 440.029 303.521 427.581 274.461 427.581C245.44 427.604 223.17 440.043 208.365 456.779C194.954 471.938 188.329 490.311 186.838 506.886C181.632 504.647 170.163 500.189 153.419 500.189C152.36 500.189 151.341 500.26 150.296 500.284C149.98 500.275 149.703 500.189 149.382 500.189C148.806 500.189 148.303 500.319 147.742 500.347C129.491 501.115 113.719 505.528 101.974 512.59C89.0235 520.377 80.7469 531.705 80.7469 544.561C80.7469 551.979 83.8576 558.762 89.0108 564.682C64.4419 549.954 48.4481 526.57 48.4481 500.189C48.4481 496.631 48.7236 493.049 49.2209 489.459C49.2665 489.119 49.3288 488.802 49.3786 488.466C49.8104 485.611 50.4642 482.754 51.208 479.91C51.6165 478.465 51.9792 476.973 52.4697 475.608C55.858 466.19 61.1291 458.642 67.2786 452.446C68.8128 450.9 70.3972 449.436 72.0256 448.049H72.0414C73.6696 446.664 75.3491 445.356 77.0407 444.126C78.7322 442.897 80.46 441.728 82.182 440.644C85.6294 438.473 89.1074 436.571 92.4804 434.908C99.1569 431.617 105.417 429.243 110.27 427.392C110.443 427.335 110.611 427.267 110.775 427.187C115.986 425.193 120.999 423.21 125.836 421.231C126.021 421.155 126.188 421.086 126.372 421.01C131.129 419.059 135.673 417.122 140.093 415.196C140.132 415.179 140.164 415.166 140.203 415.149C143.997 413.495 147.222 411.908 150.785 410.28C156.471 407.68 162.119 405.152 167.282 402.654C176.045 398.438 184.059 394.392 191.569 390.599C198.329 387.191 204.404 384.215 210.447 381.303C215.014 379.105 219.496 376.981 223.789 375.126C224.295 374.908 224.815 374.661 225.319 374.449C227.186 373.656 229.02 372.946 230.854 372.227C232.795 371.472 234.719 370.752 236.626 370.084C237.851 369.652 239.083 369.203 240.301 368.808C243.591 367.733 246.874 366.805 250.158 366.019C251.173 365.777 252.198 365.601 253.217 365.388C255.803 364.847 258.395 364.399 261.008 364.065C262.113 363.918 263.219 363.767 264.336 363.655C266.817 363.391 269.352 363.266 271.906 363.198C272.779 363.175 273.624 363.089 274.508 363.088ZM185.718 368.351V384.47C180.453 387.122 175.359 389.654 169.568 392.506V382.075C170.533 381.258 171.405 380.507 172.36 379.696C176.989 375.76 181.308 372.131 185.718 368.351ZM363.361 368.351C367.771 372.131 372.09 375.76 376.719 379.696C377.674 380.507 378.546 381.258 379.51 382.075V392.522C373.925 389.782 368.439 387.064 363.361 384.502V368.351ZM161.494 388.898V396.445C156.986 398.624 151.988 400.885 147.079 403.126C144.445 404.33 142.031 405.501 139.273 406.719C146.275 401.318 152.987 395.889 159.522 390.473C160.157 389.948 160.863 389.422 161.494 388.898ZM387.585 388.898C388.376 389.555 389.264 390.209 390.061 390.867C396.492 396.183 403.107 401.515 409.98 406.813C401.981 403.285 394.593 399.832 387.585 396.445V388.898ZM274.461 435.649C301.237 435.649 321.114 446.866 334.626 462.12C348.139 477.374 355.057 496.807 355.286 512.354C355.298 513.035 355.481 513.702 355.82 514.293C356.16 514.884 356.643 515.38 357.226 515.734C357.808 516.088 358.471 516.288 359.152 516.317C359.834 516.346 360.511 516.202 361.122 515.899C361.122 515.899 367.855 512.859 377.429 510.605C373.459 515.755 371.436 522.083 371.436 528.426C371.436 535.373 373.74 542.374 378.517 547.744C383.294 553.113 390.613 556.662 399.697 556.662C408.781 556.662 416.1 553.113 420.877 547.744C425.655 542.374 427.959 535.373 427.959 528.426C427.959 522.389 426.108 516.373 422.518 511.361C430.408 513.316 437.296 516.111 442.909 519.492C454.22 526.303 460.178 535.137 460.178 544.561C460.178 553.736 453.358 562.674 440.969 569.551C429.598 575.864 413.836 580.067 396.275 580.723C363.729 580.027 345.953 569.702 329.091 559.467C334.96 557.042 339.137 551.265 339.137 544.561V516.324C339.137 507.462 331.858 500.189 322.988 500.189C319.847 500.189 317.402 501.974 314.913 503.545V484.07C314.913 475.196 307.634 467.919 298.763 467.919C295.811 467.919 293.078 468.786 290.689 470.188V467.919C290.689 459.056 283.41 451.784 274.539 451.784C265.669 451.784 258.39 459.056 258.39 467.919V471.275C255.901 469.704 253.456 467.919 250.315 467.919C241.445 467.919 234.166 475.192 234.166 484.054V502.458C231.777 501.058 229.042 500.189 226.091 500.189C217.221 500.189 209.942 507.462 209.942 516.324V544.561C209.942 551.248 214.096 557.016 219.941 559.451C203.062 569.7 185.29 580.027 152.725 580.723C135.164 580.067 119.402 575.864 108.031 569.551C95.642 562.674 88.8216 553.736 88.8216 544.561C88.8216 535.142 94.8063 526.305 106.138 519.492C111.761 516.11 118.665 513.316 126.561 511.361C122.971 516.373 121.12 522.389 121.12 528.426C121.12 535.373 123.424 542.374 128.201 547.744C132.979 553.113 140.298 556.662 149.382 556.662C158.466 556.662 165.785 553.113 170.562 547.744C175.339 542.374 177.643 535.373 177.643 528.426C177.643 522.083 175.62 515.755 171.65 510.605C181.238 512.859 187.957 515.899 187.957 515.899C188.568 516.202 189.245 516.346 189.927 516.317C190.608 516.288 191.271 516.088 191.853 515.734C192.436 515.38 192.919 514.884 193.258 514.293C193.597 513.702 193.781 513.035 193.793 512.354C194.019 496.805 200.928 477.373 214.421 462.12C227.9 446.883 247.725 435.671 274.461 435.649ZM274.539 459.851C279.041 459.851 282.614 463.422 282.614 467.919V484.07V556.646V556.662C282.614 561.16 279.041 564.73 274.539 564.73C270.038 564.73 266.465 561.16 266.465 556.662V484.054V467.919C266.465 463.422 270.038 459.851 274.539 459.851ZM250.315 475.987C254.817 475.987 258.39 479.557 258.39 484.054V556.662C258.39 561.16 254.817 564.73 250.315 564.73C245.814 564.73 242.241 561.16 242.241 556.662V484.054C242.241 479.557 245.814 475.987 250.315 475.987ZM298.763 475.987C303.265 475.987 306.838 479.551 306.838 484.07V516.324V544.561V556.646C306.838 561.155 303.262 564.73 298.763 564.73C294.267 564.73 290.697 561.158 290.689 556.646V484.07C290.689 479.562 294.265 475.987 298.763 475.987ZM226.091 508.257C230.593 508.257 234.166 511.827 234.166 516.324V544.561C234.166 549.058 230.593 552.628 226.091 552.628C221.59 552.628 218.017 549.058 218.017 544.561V516.324C218.017 511.827 221.59 508.257 226.091 508.257ZM322.988 508.257C327.489 508.257 331.062 511.827 331.062 516.324V544.561C331.062 549.058 327.489 552.628 322.988 552.628C318.486 552.628 314.913 549.058 314.913 544.561V516.324C314.913 511.827 318.486 508.257 322.988 508.257ZM150.36 508.351C156.857 508.586 161.405 510.944 164.538 514.465C167.835 518.171 169.568 523.271 169.568 528.426C169.568 533.58 167.835 538.68 164.538 542.386C161.24 546.093 156.447 548.595 149.382 548.595C142.316 548.595 137.523 546.093 134.226 542.386C130.929 538.68 129.195 533.58 129.195 528.426C129.195 523.271 130.929 518.171 134.226 514.465C137.207 511.114 141.506 508.853 147.505 508.43C148.443 508.386 149.406 508.375 150.36 508.351ZM398.719 508.351C399.673 508.375 400.636 508.386 401.574 508.43C407.573 508.853 411.872 511.114 414.853 514.465C418.15 518.171 419.884 523.271 419.884 528.426C419.884 533.58 418.15 538.68 414.853 542.386C411.556 546.093 406.762 548.595 399.697 548.595C392.632 548.595 387.839 546.093 384.541 542.386C381.244 538.68 379.51 533.58 379.51 528.426C379.51 523.271 381.244 518.171 384.541 514.465C387.674 510.944 392.222 508.586 398.719 508.351Z" fill="#FFE81F"/>
</svg>
