<svg width="510" height="509" viewBox="0 0 510 509" fill="none" xmlns="http://www.w3.org/2000/svg">
<path d="M46.7411 429.452C49.7609 429.452 52.2088 427.004 52.2088 423.985C52.2088 420.965 49.7609 418.517 46.7411 418.517C43.7214 418.517 41.2734 420.965 41.2734 423.985C41.2734 427.004 43.7214 429.452 46.7411 429.452Z" stroke="#FFE81F" stroke-width="6" stroke-miterlimit="10" stroke-linecap="round" stroke-linejoin="round"/>
<path d="M106.886 35.7779C109.905 35.7779 112.353 33.3299 112.353 30.3102C112.353 27.2905 109.905 24.8425 106.886 24.8425C103.866 24.8425 101.418 27.2905 101.418 30.3102C101.418 33.3299 103.866 35.7779 106.886 35.7779Z" stroke="#FFE81F" stroke-width="6" stroke-miterlimit="10" stroke-linecap="round" stroke-linejoin="round"/>
<path d="M478.688 35.778C481.708 35.778 484.156 33.3301 484.156 30.3103C484.156 27.2906 481.708 24.8427 478.688 24.8427C475.669 24.8427 473.221 27.2906 473.221 30.3103C473.221 33.3301 475.669 35.778 478.688 35.778Z" stroke="#FFE81F" stroke-width="6" stroke-miterlimit="10" stroke-linecap="round" stroke-linejoin="round"/>
<path d="M155.269 208.065L392.031 71.3728" stroke="#FFE81F" stroke-width="6" stroke-miterlimit="10" stroke-linecap="round" stroke-linejoin="round"/>
<path d="M464.231 294.853L467.161 343.669L353.521 409.281L312.71 382.336" stroke="#FFE81F" stroke-width="6" stroke-miterlimit="10" stroke-linecap="round" stroke-linejoin="round"/>
<path d="M450.538 353.27C454.245 373.2 445.305 394.174 426.748 404.885C408.185 415.602 385.549 412.852 370.141 399.669" stroke="#FFE81F" stroke-width="6" stroke-miterlimit="10" stroke-linecap="round"/>
<path d="M246.301 5.74854C246.776 23.2233 237.908 40.3919 221.707 49.7471C205.501 59.1023 186.189 58.1947 171.295 49.0417" stroke="#FFE81F" stroke-width="6" stroke-miterlimit="10" stroke-linecap="round"/>
<path d="M283.452 58.2869L236.102 85.6254L252.505 114.036L299.855 86.697L283.452 58.2869Z" stroke="#FFE81F" stroke-width="6" stroke-miterlimit="10" stroke-linecap="round" stroke-linejoin="round"/>
<path d="M136.97 142.868L198.23 107.498L214.633 135.908L142.306 177.67" stroke="#FFE81F" stroke-width="6" stroke-miterlimit="10" stroke-linecap="round" stroke-linejoin="round"/>
<path d="M212.872 307.834L155.269 208.065C117.526 142.682 139.927 59.081 205.304 21.3375C270.682 -16.4115 354.283 5.98969 392.032 71.3724L506.853 270.249L270.096 406.941L244.098 363.03" stroke="#FFE81F" stroke-width="6" stroke-miterlimit="10" stroke-linecap="round" stroke-linejoin="round"/>
<path d="M495.092 506H341.996L363.867 440.388H473.221L495.092 506Z" stroke="#FFE81F" stroke-width="6" stroke-miterlimit="10" stroke-linecap="round" stroke-linejoin="round"/>
<path d="M243.578 506H90.4824L112.353 440.388H221.707L243.578 506Z" stroke="#FFE81F" stroke-width="6" stroke-miterlimit="10" stroke-linecap="round" stroke-linejoin="round"/>
<path d="M440.415 440.386V393.217" stroke="#FFE81F" stroke-width="6" stroke-miterlimit="10" stroke-linecap="round" stroke-linejoin="round"/>
<path d="M396.674 440.387V411.179" stroke="#FFE81F" stroke-width="6" stroke-miterlimit="10" stroke-linecap="round" stroke-linejoin="round"/>
<path d="M323.05 219.14C333.726 208.464 333.726 191.155 323.05 180.478C312.374 169.802 295.064 169.802 284.388 180.478C273.711 191.155 273.711 208.464 284.388 219.14C295.064 229.817 312.374 229.817 323.05 219.14Z" stroke="#FFE81F" stroke-width="6" stroke-miterlimit="10" stroke-linecap="round" stroke-linejoin="round"/>
<path d="M30.3385 210.744C45.4371 210.744 57.6769 198.504 57.6769 183.406C57.6769 168.307 45.4371 156.067 30.3385 156.067C15.2399 156.067 3 168.307 3 183.406C3 198.504 15.2399 210.744 30.3385 210.744Z" stroke="#FFE81F" stroke-width="6" stroke-miterlimit="10" stroke-linecap="round" stroke-linejoin="round"/>
<path d="M117.823 281.824C117.823 296.921 105.581 309.163 90.4844 309.163" stroke="#FFE81F" stroke-width="6" stroke-miterlimit="10" stroke-linecap="round" stroke-linejoin="round"/>
<path d="M145.16 309.163C130.063 309.163 117.821 296.921 117.821 281.825" stroke="#FFE81F" stroke-width="6" stroke-miterlimit="10" stroke-linecap="round" stroke-linejoin="round"/>
<path d="M90.4844 309.163C105.581 309.163 117.823 321.405 117.823 336.501" stroke="#FFE81F" stroke-width="6" stroke-miterlimit="10" stroke-linecap="round" stroke-linejoin="round"/>
<path d="M117.821 336.501C117.821 321.405 130.063 309.163 145.16 309.163" stroke="#FFE81F" stroke-width="6" stroke-miterlimit="10" stroke-linecap="round" stroke-linejoin="round"/>
<path d="M139.692 440.387L280.36 185.603" stroke="#FFE81F" stroke-width="6" stroke-miterlimit="10" stroke-linecap="round" stroke-linejoin="round"/>
<path d="M199.836 440.387L326.544 214.872" stroke="#FFE81F" stroke-width="6" stroke-miterlimit="10" stroke-linecap="round" stroke-linejoin="round"/>
<path d="M360.791 167.429C378.67 198.944 367.62 238.99 336.098 256.875C324.277 263.578 311.264 266.219 298.661 265.229" stroke="#FFE81F" stroke-width="6" stroke-miterlimit="10" stroke-linecap="round" stroke-linejoin="round"/>
</svg>
